<?xml version="1.0" standalone="no"?>
<!DOCTYPE svg PUBLIC "-//W3C//DTD SVG 20010904//EN"
 "http://www.w3.org/TR/2001/REC-SVG-20010904/DTD/svg10.dtd">
<svg version="1.0" xmlns="http://www.w3.org/2000/svg"
 width="472.000000pt" height="472.000000pt" viewBox="0 0 472.000000 472.000000"
 preserveAspectRatio="xMidYMid meet">
<metadata>
Created by potrace 1.11, written by Peter Selinger 2001-2013
</metadata>
<g transform="translate(0.000000,472.000000) scale(0.100000,-0.100000)"
fill="#000000" stroke="none">
<path d="M497 3922 c-246 -246 -447 -450 -447 -454 0 -3 202 -6 450 -6 l450 0
0 454 c0 250 -1 454 -3 454 -1 0 -203 -201 -450 -448z"/>
<path d="M980 3916 l0 -454 455 1 455 1 0 453 0 453 -455 0 -455 0 0 -454z"/>
<path d="M1917 3933 c0 -241 1 -445 2 -454 1 -14 48 -16 451 -16 248 0 450 2
450 4 0 5 -897 903 -902 903 -2 0 -2 -197 -1 -437z"/>
<path d="M3312 3917 l-454 -454 456 0 456 0 0 454 c0 249 -1 453 -3 453 -1 0
-206 -204 -455 -453z"/>
<path d="M3800 3915 l0 -455 455 0 455 0 0 455 0 455 -455 0 -455 0 0 -455z"/>
<path d="M82 3432 l-42 -3 2 -452 3 -452 440 -1 c242 0 446 2 453 4 9 3 12
103 12 453 l0 449 -32 1 c-150 2 -802 3 -836 1z"/>
<path d="M1935 3430 c-9 -3 148 -166 434 -452 247 -247 450 -448 452 -448 3 0
4 203 4 450 l0 450 -25 1 c-114 4 -854 3 -865 -1z"/>
<path d="M3800 2977 l0 -454 455 0 455 0 0 454 0 453 -455 0 -455 0 0 -453z"/>
<path d="M50 2490 c0 -3 202 -208 450 -455 l450 -450 0 453 c0 248 -3 453 -7
453 -28 5 -893 4 -893 -1z"/>
<path d="M980 2040 l0 -455 453 0 452 1 3 454 2 455 -455 0 -455 0 0 -455z"/>
<path d="M1919 2485 c-5 -49 -2 -870 2 -883 6 -15 20 -17 100 -16 52 1 97 2
102 3 4 0 7 205 7 454 l0 453 -105 0 c-63 -1 -105 -5 -106 -11z"/>
<path d="M2152 2490 c-4 -3 -8 -205 -8 -450 1 -389 3 -446 16 -451 8 -3 56 -5
105 -4 l90 1 0 454 0 455 -98 0 c-53 1 -101 -2 -105 -5z"/>
<path d="M3802 2040 l3 -454 450 0 450 0 0 454 0 455 -453 0 -452 0 2 -455z"/>
<path d="M2370 2040 l0 -455 227 228 228 227 -228 227 -227 228 0 -455z"/>
<path d="M2438 1285 c-1 -1 -21 -5 -43 -8 -56 -8 -92 -23 -146 -59 l-46 -31
24 -43 25 -44 32 25 c110 83 265 71 268 -22 2 -56 -43 -112 -302 -373 -28 -28
-35 -43 -36 -78 l-1 -42 248 0 248 0 -2 51 -2 52 -168 -1 -168 0 123 127 c138
142 181 209 180 277 -1 24 -8 56 -16 72 -20 38 -82 80 -131 87 -22 4 -50 8
-62 10 -12 2 -23 2 -25 0z"/>
<path d="M48 1228 c-1 -27 -1 -51 2 -52 3 -2 89 -2 193 -2 103 1 187 -2 187
-5 0 -3 -89 -112 -199 -243 -186 -222 -199 -240 -198 -277 l1 -39 283 0 283 0
0 50 c0 33 -4 50 -12 51 -7 0 -100 0 -205 0 l-193 0 128 152 c69 84 134 161
143 172 10 11 43 50 74 88 49 57 58 73 59 110 l1 42 -272 2 -271 2 -4 -51z"/>
<path d="M3018 1258 c-143 -50 -228 -169 -228 -319 0 -175 147 -323 329 -333
152 -7 288 71 349 203 38 82 38 193 -1 273 -79 162 -273 238 -449 176z m224
-102 c40 -17 94 -68 115 -110 9 -17 18 -57 20 -91 15 -202 -231 -322 -387
-188 -106 91 -113 240 -15 338 68 69 175 89 267 51z"/>
<path d="M824 1104 c-72 -26 -132 -96 -149 -174 -21 -96 2 -188 65 -251 78
-78 211 -96 318 -42 75 37 85 55 51 89 l-27 26 -45 -26 c-57 -34 -131 -37
-179 -9 -31 18 -78 75 -78 94 0 5 85 9 189 9 142 0 190 3 193 13 7 18 0 92
-13 139 -14 55 -80 122 -134 137 -54 15 -141 13 -191 -5z m164 -85 c33 -11 72
-63 72 -96 0 -19 -7 -20 -140 -20 -98 0 -140 3 -140 11 0 6 8 27 18 45 33 61
114 87 190 60z"/>
<path d="M1277 1112 c-2 -4 -3 -117 -3 -252 l1 -245 56 -3 56 -3 1 144 c1 80
6 155 11 168 20 54 97 101 149 91 6 -2 12 3 13 10 5 100 5 98 -21 98 -38 -1
-104 -34 -128 -65 l-22 -28 0 44 0 44 -55 2 c-30 1 -56 -2 -58 -5z"/>
<path d="M1765 1105 c-102 -38 -160 -125 -159 -241 1 -160 114 -265 276 -258
150 7 249 108 250 254 1 107 -50 193 -140 236 -50 24 -174 28 -227 9z m184
-103 c46 -34 65 -69 68 -129 5 -67 -15 -114 -60 -147 -22 -16 -43 -21 -92 -21
-54 0 -67 4 -90 25 -59 55 -75 140 -40 213 36 77 148 107 214 59z"/>
<path d="M3609 1097 c-2 -12 -4 -125 -3 -252 l0 -230 56 -3 56 -3 0 144 c0
163 10 200 62 237 36 25 111 31 148 11 44 -23 52 -58 53 -230 l0 -161 54 0
c33 0 54 5 57 13 2 6 3 92 2 189 -1 173 -2 177 -29 223 -19 33 -39 52 -68 66
-84 38 -207 16 -255 -46 -13 -16 -22 -22 -23 -14 0 8 -2 28 -2 44 -2 29 -4 30
-53 32 -47 2 -52 1 -55 -20z"/>
<path d="M4370 1111 c-139 -43 -211 -189 -165 -335 39 -124 162 -190 307 -164
56 10 89 25 127 58 l25 21 -31 31 -31 31 -29 -20 c-38 -28 -70 -36 -122 -34
-57 2 -106 33 -131 82 l-20 39 192 2 193 3 1 50 c2 112 -50 200 -137 228 -53
18 -135 21 -179 8z m158 -101 c29 -18 62 -70 62 -98 0 -6 -62 -9 -142 -8 -137
1 -143 2 -140 21 15 87 138 135 220 85z"/>
</g>
</svg>
